# xmcd
#
# Track frame offsets:
#	150
#	13088
#	29113
#	46244
#	61323
#	85481
#	106845
#	120113
#	145145
#	157593
#	175379
#
# Disc length: 2570 seconds
#
# Revision: 0
# Processed by: cddbd v1.5.1PL2 Copyright (c) Steve Scherf et al.
# Submitted via: dBpowerAMP V4.0
#
DISCID=850a080b
DTITLE=The Windmills - Now Is Then
DYEAR=2003
DGENRE=Rock
TTITLE0=Ever To Exist
TTITLE1=Beach Girls 1918
TTITLE2=Now Is Then
TTITLE3=Footprints
TTITLE4=Walking Around The World
TTITLE5=Your Fingers And Mine
TTITLE6=Something Spring
TTITLE7=Across The Playing Fields
TTITLE8=Amelia
TTITLE9=Summer Snow
TTITLE10=Time Machine
EXTD=
EXTT0=
EXTT1=
EXTT2=
EXTT3=
EXTT4=
EXTT5=
EXTT6=
EXTT7=
EXTT8=
EXTT9=
EXTT10=
PLAYORDER=
